<?xml version="1.0" encoding="UTF-8"?>
<svg version="1.1" xmlns="http://www.w3.org/2000/svg" width="500" height="500">
<path d="M0 0 C2.24439892 1.4479993 4.36046977 2.99629125 6.48828125 4.609375 C7.51888672 5.28613281 7.51888672 5.28613281 8.5703125 5.9765625 C18.72457418 12.84961916 25.08389772 24.75484581 27.80078125 36.546875 C30.22543561 51.30462702 27.3649993 64.89999806 19.48828125 77.609375 C10.31584534 89.8920047 -1.84093181 97.67943754 -16.95703125 100.29296875 C-33.45782296 102.33664479 -48.30617743 97.31869608 -61.40234375 87.42578125 C-70.44367162 79.20261035 -77.02090357 66.9496156 -78.3984375 54.734375 C-78.94189917 39.74232902 -76.79270947 26.78915284 -67.51171875 14.609375 C-66.76921875 13.578125 -66.02671875 12.546875 -65.26171875 11.484375 C-48.89414869 -5.62717552 -21.14096367 -11.70479481 0 0 Z " fill="#017E7F" transform="translate(161.51171875,242.390625)"/>
<path d="M0 0 C9.77710043 9.17850245 15.79786217 21.36854879 16.8125 34.8125 C16.8640625 35.44929688 16.915625 36.08609375 16.96875 36.7421875 C17.55804471 50.14864217 13.33150401 62.83365584 4.625 72.9375 C-4.98900045 83.09448387 -15.84546717 91.53305283 -30.26171875 92.1484375 C-48.61405422 92.44609569 -61.8720739 88.97606715 -75.5 76 C-86.67114465 64.27916411 -90.17078282 51.81083904 -90.1875 35.8125 C-89.18271481 20.81379751 -82.73423154 8.82405533 -71.9375 -1.375 C-51.02330122 -19.16449676 -20.48503457 -17.27169581 0 0 Z " fill="#F3475E" transform="translate(173.1875,137.1875)"/>
<path d="M0 0 C10.75709956 8.03951652 17.86986515 19.17518769 20.15625 32.4609375 C21.92418503 48.06678374 19.18318146 62.83703775 9.703125 75.64453125 C-0.8369014 88.04456231 -15.04070682 93.68671931 -30.9140625 95.53125 C-45.1291173 96.18813793 -58.59528536 90.40921494 -69.40234375 81.50390625 C-79.38740705 72.01351581 -85.50346177 58.86199142 -85.87084961 45.14575195 C-86.053763 29.07631408 -82.46579732 16.96125906 -71.34765625 4.88671875 C-51.15752443 -14.77383584 -22.77677047 -15.73603771 0 0 Z " fill="#B7D8D9" transform="translate(396.52734375,247.74609375)"/>
<path d="M0 0 C12.78086087 9.27442339 20.80869793 21.04784426 23.40625 36.74609375 C24.54270028 53.58791427 20.59825113 68.06859234 9.90625 81.43359375 C-0.24167841 92.26193882 -14.7103933 96.98234942 -29.15625 97.99609375 C-40.15535225 97.78334516 -50.23242426 94.34688693 -59.59375 88.74609375 C-60.39554688 88.2665625 -61.19734375 87.78703125 -62.0234375 87.29296875 C-73.33235507 79.54499062 -79.66667446 65.83719878 -82.171875 52.71875 C-84.41141515 36.93828653 -79.79490059 23.53856366 -71.07421875 10.46875 C-64.40471849 1.94192055 -53.08756008 -4.91731236 -42.59375 -7.25390625 C-41.85253906 -7.43308594 -41.11132812 -7.61226562 -40.34765625 -7.796875 C-26.10950308 -10.15980255 -12.18030979 -7.9290653 0 0 Z " fill="#B6D7D9" transform="translate(279.59375,245.25390625)"/>
<path d="M0 0 C0.66 0.33 1.32 0.66 2 1 C0.4840625 2.1446875 0.4840625 2.1446875 -1.0625 3.3125 C-9.67870778 10.67035695 -16.20559552 22.8950574 -17.19262695 34.20776367 C-17.26685855 36.47517896 -17.27322627 38.731568 -17.25 41 C-17.25773437 41.75539063 -17.26546875 42.51078125 -17.2734375 43.2890625 C-17.2252167 57.32131452 -10.95041444 70.19738692 -1.125 80.0625 C-0.09087051 81.0496236 0.94795431 82.03199346 2 83 C-1.81968822 83 -2.45611032 82.09119446 -5.1875 79.5 C-15.02482354 69.29297312 -19.94872839 56.17228743 -20.01953125 42.125 C-19.71401032 29.55820531 -16.70620732 19.03599093 -9 9 C-8.55269531 8.4121875 -8.10539062 7.824375 -7.64453125 7.21875 C-5.36814745 4.3610128 -3.04187856 2.02791904 0 0 Z " fill="#002334" transform="translate(103,248)"/>
<path d="M0 0 C7.29279996 6.44232766 9.51070949 17.57806211 10.21875 26.87109375 C10.71688984 42.83232457 4.88539414 56.39794109 -5.8515625 68.0390625 C-7.84598649 69.85942767 -9.52727751 70.95944257 -12 72 C-11.175 71.071875 -10.35 70.14375 -9.5 69.1875 C3.74491546 53.62001642 8.34582709 40.26217453 7 20 C6.16164592 14.96987552 4.71508465 10.81876999 1.8125 6.625 C0 4 0 4 0 0 Z " fill="#012C41" transform="translate(180,260)"/>
<path d="M0 0 C4.89547859 -0.35603481 8.07221549 -0.18694052 12.5 2 C20.62423171 5.86933747 27.85826478 3.53329787 36.34375 1.734375 C40.56701771 0.88611183 44.71236661 0.37610819 49 0 C42.44237447 5.98739722 33.63928515 6.52722483 25.1875 6.4375 C23.74262207 6.43049072 23.74262207 6.43049072 22.26855469 6.42333984 C14.55057921 6.26336159 5.75881328 5.75881328 0 0 Z " fill="#702941" transform="translate(112,223)"/>
<path d="M0 0 C0.33 0 0.66 0 1 0 C3.96553033 15.83210547 1.33096799 30.25098989 -7 44 C-10.36426439 48.54509891 -14.20735512 52.93803244 -19 56 C-19.99 55.67 -20.98 55.34 -22 55 C-21.50371094 54.59910156 -21.00742187 54.19820313 -20.49609375 53.78515625 C-10.43528652 45.36615058 -5.13372355 36.40117065 -1 24 C-0.85110253 22.15533558 -0.7520899 20.30642725 -0.68359375 18.45703125 C-0.64169922 17.38388672 -0.59980469 16.31074219 -0.55664062 15.20507812 C-0.51732422 14.08552734 -0.47800781 12.96597656 -0.4375 11.8125 C-0.39431641 10.68134766 -0.35113281 9.55019531 -0.30664062 8.38476562 C-0.20050901 5.58996646 -0.09845615 2.79507838 0 0 Z " fill="#253340" transform="translate(415,277)"/>
<path d="M0 0 C-1.4562545 0.67119549 -2.91507867 1.33681807 -4.375 2 C-5.18710938 2.37125 -5.99921875 2.7425 -6.8359375 3.125 C-9 4 -9 4 -11 4 C-11.433125 4.86625 -11.433125 4.86625 -11.875 5.75 C-12.24625 6.4925 -12.6175 7.235 -13 8 C-13.20625 8.680625 -13.4125 9.36125 -13.625 10.0625 C-15.57492665 12.81012392 -17.90626315 13.18117521 -21.03515625 14.2109375 C-23.64722839 15.25992074 -25.13749606 16.93055117 -27 19 C-27.99 19.33 -28.98 19.66 -30 20 C-27.1008671 13.14750406 -22.15261362 9.02307715 -16 5.25 C-15.39671875 4.86457031 -14.7934375 4.47914063 -14.171875 4.08203125 C-4.82821192 -1.78822664 -4.82821192 -1.78822664 0 0 Z " fill="#7F99A4" transform="translate(237,240)"/>
<path d="M0 0 C0.33 0 0.66 0 1 0 C3.36619964 13.90142287 1.62083393 27.8688766 -6 40 C-7.57397522 42.13580288 -9.1988879 44.04450686 -11 46 C-11 43 -11 43 -9.5625 41.1875 C-7.63599355 38.49039097 -7.3700239 36.25621035 -7 33 C-6.34 33 -5.68 33 -5 33 C-4.87882813 32.27554688 -4.75765625 31.55109375 -4.6328125 30.8046875 C-4.46523437 29.83789062 -4.29765625 28.87109375 -4.125 27.875 C-3.96257812 26.92367187 -3.80015625 25.97234375 -3.6328125 24.9921875 C-3 22 -3 22 -1.96875 19.15625 C-0.77795479 15.27656238 -0.55007979 11.65913024 -0.375 7.625 C-0.33632812 6.88894531 -0.29765625 6.15289062 -0.2578125 5.39453125 C-0.16442002 3.59672594 -0.0811629 1.79839892 0 0 Z " fill="#6D2B41" transform="translate(188,165)"/>
<path d="M0 0 C0.79913818 -0.00531738 1.59827637 -0.01063477 2.42163086 -0.01611328 C7.70398078 0.04598715 12.29737169 0.85427951 17.375 2.3125 C17.375 2.6425 17.375 2.9725 17.375 3.3125 C16.76615967 3.30202637 16.15731934 3.29155273 15.5300293 3.28076172 C0.89574703 2.9036266 0.89574703 2.9036266 -13.55078125 4.8671875 C-16.26183244 5.44922109 -18.86430456 5.46172678 -21.625 5.3125 C-16.05160649 -0.26089351 -7.40817118 0.02439022 0 0 Z " fill="#064C58" transform="translate(136.625,236.6875)"/>
<path d="M0 0 C0.87914062 0.00451172 1.75828125 0.00902344 2.6640625 0.01367188 C4.81773803 0.02537663 6.97137817 0.04330931 9.125 0.0625 C9.125 0.3925 9.125 0.7225 9.125 1.0625 C7.47564453 1.10117188 7.47564453 1.10117188 5.79296875 1.140625 C-5.44606268 1.52383167 -14.99340253 2.4870198 -23.875 10.0625 C-26.6875 10.8125 -26.6875 10.8125 -28.875 11.0625 C-27.66104047 7.42062142 -26.78493923 7.14504007 -23.5 5.375 C-22.70851563 4.93800781 -21.91703125 4.50101563 -21.1015625 4.05078125 C-18.875 3.0625 -18.875 3.0625 -15.875 3.0625 C-15.875 2.4025 -15.875 1.7425 -15.875 1.0625 C-10.54632017 -0.04691367 -5.41218145 -0.05298069 0 0 Z " fill="#9A344D" transform="translate(136.875,123.9375)"/>
<path d="M0 0 C3.96 0 7.92 0 12 0 C12.33 0.66 12.66 1.32 13 2 C20.26 2 27.52 2 35 2 C24.51981132 7.24009434 12.88244723 5.15056241 2 2 C1.34 1.34 0.68 0.68 0 0 Z " fill="#435967" transform="translate(343,338)"/>
<path d="M0 0 C1.9375 1.125 1.9375 1.125 4 3 C4.625 5.9375 4.625 5.9375 5 9 C5.76603959 11.2857711 5.76603959 11.2857711 7 13 C7.99 13.33 8.98 13.66 10 14 C10 14.66 10 15.32 10 16 C10.66 16 11.32 16 12 16 C12.061875 16.70125 12.12375 17.4025 12.1875 18.125 C13.29201202 22.0332733 15.28230992 24.00357248 18 27 C10.48542604 23.66018935 6.61639522 16.76790363 3.0625 9.6875 C2.75594482 9.07680664 2.44938965 8.46611328 2.13354492 7.83691406 C0.78127152 5.02729853 0 3.1583818 0 0 Z " fill="#4A5D6D" transform="translate(313,304)"/>
<path d="M0 0 C0.33 0 0.66 0 1 0 C1.36843256 3.18601715 1.71712486 6.37390761 2.0625 9.5625 C2.16626953 10.45775391 2.27003906 11.35300781 2.37695312 12.27539062 C2.92488885 17.43354416 2.99966222 21.90381987 2 27 C-2.47188516 19.24873239 -1.83841609 8.50267444 0 0 Z " fill="#6B8390" transform="translate(198,278)"/>
<path d="M0 0 C13.30015503 0.43607066 21.91303086 8.10637063 31 17 C30.67 17.66 30.34 18.32 30 19 C29.59910156 18.56429687 29.19820312 18.12859375 28.78515625 17.6796875 C21.45860889 10.00425693 13.66787032 4.48854004 3 3 C3 2.34 3 1.68 3 1 C2.01 0.67 1.02 0.34 0 0 Z " fill="#37102B" transform="translate(147,125)"/>
<path d="M0 0 C1 3 1 3 -0.00390625 5.234375 C-4.36734554 12.27711911 -8.91803779 19.40629478 -16 24 C-16.99 23.67 -17.98 23.34 -19 23 C-18.50371094 22.59910156 -18.00742187 22.19820313 -17.49609375 21.78515625 C-10.06563114 15.5672549 -4.54221796 8.53936977 0 0 Z " fill="#1C2D3B" transform="translate(412,309)"/>
<path d="M0 0 C-5.32610942 4.50670797 -10.53291434 5.25409596 -17.375 5.125 C-18.62023437 5.10695312 -19.86546875 5.08890625 -21.1484375 5.0703125 C-22.55996094 5.03550781 -22.55996094 5.03550781 -24 5 C-24 4.67 -24 4.34 -24 4 C-22.95199219 3.79503906 -21.90398437 3.59007812 -20.82421875 3.37890625 C-19.44529231 3.10687314 -18.06638717 2.83473209 -16.6875 2.5625 C-15.65206055 2.36043945 -15.65206055 2.36043945 -14.59570312 2.15429688 C-3.34395559 -0.07431012 -3.34395559 -0.07431012 0 0 Z " fill="#94374F" transform="translate(161,223)"/>
<path d="M0 0 C2.475 0.495 2.475 0.495 5 1 C5.2475 1.94875 5.495 2.8975 5.75 3.875 C7.17321469 7.43303673 7.69106337 7.55234022 11 9 C12.25 11.125 12.25 11.125 13 13 C7.830455 11.59012409 4.24658648 8.13677955 1 4 C0.296875 1.7734375 0.296875 1.7734375 0 0 Z " fill="#C1445E" transform="translate(96,208)"/>
<path d="M0 0 C0.66 0.99 1.32 1.98 2 3 C1.34 3 0.68 3 0 3 C0.04125 4.11375 0.0825 5.2275 0.125 6.375 C0 10 0 10 -2 12 C-2.36952049 14.12860662 -2.36952049 14.12860662 -2.4140625 16.5703125 C-2.45273438 17.46621094 -2.49140625 18.36210937 -2.53125 19.28515625 C-2.5621875 20.22230469 -2.593125 21.15945312 -2.625 22.125 C-2.66367188 23.06988281 -2.70234375 24.01476562 -2.7421875 24.98828125 C-2.83661346 27.32532375 -2.92218394 29.66235501 -3 32 C-3.33 32 -3.66 32 -4 32 C-4.82555811 9.19872014 -4.82555811 9.19872014 0 0 Z " fill="#C24C64" transform="translate(89,154)"/>
<path d="M0 0 C5.98166808 2.90020271 10.58663767 8.05037426 13.4375 14 C13.623125 14.66 13.80875 15.32 14 16 C13.01 16.33 12.02 16.66 11 17 C10.67 15.35 10.34 13.7 10 12 C8.68 11.67 7.36 11.34 6 11 C6.33 10.01 6.66 9.02 7 8 C6.4946875 7.59007812 5.989375 7.18015625 5.46875 6.7578125 C4.8190625 6.21898437 4.169375 5.68015625 3.5 5.125 C2.8503125 4.59132812 2.200625 4.05765625 1.53125 3.5078125 C1.0259375 3.01023438 0.520625 2.51265625 0 2 C0 1.34 0 0.68 0 0 Z " fill="#506673" transform="translate(282,248)"/>
<path d="M0 0 C0.66 0.33 1.32 0.66 2 1 C0.6875 2.5 0.6875 2.5 -1 4 C-1.99 4 -2.98 4 -4 4 C-4.103125 4.639375 -4.20625 5.27875 -4.3125 5.9375 C-4.539375 6.618125 -4.76625 7.29875 -5 8 C-5.99 8.33 -6.98 8.66 -8 9 C-8 9.66 -8 10.32 -8 11 C-8.99 11.33 -9.98 11.66 -11 12 C-9.58938233 7.20389993 -6.83496828 4.08358773 -3 1 C-2.01 0.67 -1.02 0.34 0 0 Z " fill="#D74C64" transform="translate(104,137)"/>
<path d="M0 0 C-3.79163027 2.52775351 -6.80874031 2.22443035 -11.1875 2.125 C-11.93708984 2.11597656 -12.68667969 2.10695313 -13.45898438 2.09765625 C-15.30612654 2.07412578 -17.15310412 2.03825561 -19 2 C-18.67 1.34 -18.34 0.68 -18 0 C-16.14375 0.0309375 -16.14375 0.0309375 -14.25 0.0625 C-11.94544623 0.07058615 -10.10836112 0.02868383 -7.875 -0.5625 C-5.1167247 -1.20609757 -2.73998157 -0.56045077 0 0 Z " fill="#C3DFE7" transform="translate(376,339)"/>
<path d="M0 0 C0.66 0.33 1.32 0.66 2 1 C2 1.99 2 2.98 2 4 C-0.93026082 6.7349101 -3.17727085 8.72575695 -7 10 C-5.33248852 6.05860922 -2.77289351 3.2107188 0 0 Z " fill="#5F7580" transform="translate(214,250)"/>
<path d="M0 0 C2.97 0.99 5.94 1.98 9 3 C9 3.99 9 4.98 9 6 C9.66 6 10.32 6 11 6 C11 6.66 11 7.32 11 8 C6.01780786 6.72548573 3.37464528 4.87091665 0 1 C0 0.67 0 0.34 0 0 Z " fill="#0A5D64" transform="translate(103,329)"/>
<path d="M0 0 C1.9375 1.125 1.9375 1.125 4 3 C4.625 5.8125 4.625 5.8125 5 9 C5.63305821 11.01089078 6.29094062 13.01463373 7 15 C4.47138427 12.73946101 3.16143472 10.60099936 1.8125 7.5 C1.46832031 6.7265625 1.12414062 5.953125 0.76953125 5.15625 C0 3 0 3 0 0 Z " fill="#435868" transform="translate(313,304)"/>
<path d="M0 0 C3.96 0 7.92 0 12 0 C12.33 0.99 12.66 1.98 13 3 C8.07872966 3.16682272 4.49656104 3.24828052 0 1 C0 0.67 0 0.34 0 0 Z " fill="#728A93" transform="translate(343,338)"/>
<path d="M0 0 C0 0.66 0 1.32 0 2 C-0.66 2 -1.32 2 -2 2 C-2.66 3.32 -3.32 4.64 -4 6 C-5.98 6 -7.96 6 -10 6 C-4.4 0 -4.4 0 0 0 Z " fill="#06515B" transform="translate(115,242)"/>
<path d="M0 0 C1.41750563 0.11509661 2.83401169 0.24253658 4.25 0.375 C5.03890625 0.44460937 5.8278125 0.51421875 6.640625 0.5859375 C9.085877 1.01507113 10.84836903 1.78600638 13 3 C13 3.66 13 4.32 13 5 C9.7 4.34 6.4 3.68 3 3 C3 2.34 3 1.68 3 1 C2.01 0.67 1.02 0.34 0 0 Z " fill="#5B2135" transform="translate(147,125)"/>
<path d="M0 0 C0.66 0.33 1.32 0.66 2 1 C1.43628586 4.26954202 0.50037734 5.82575883 -2 8 C-2.66 7.67 -3.32 7.34 -4 7 C-3.6875 4.625 -3.6875 4.625 -3 2 C-2.01 1.34 -1.02 0.68 0 0 Z " fill="#C1E0E4" transform="translate(401,320)"/>
<path d="M0 0 C0.99 0.33 1.98 0.66 3 1 C3.70211894 2.65204456 4.36971413 4.31923769 5 6 C5.66 6.33 6.32 6.66 7 7 C7.625 9.0625 7.625 9.0625 8 11 C4.71573897 9.94434467 3.42848444 8.38339648 1.75 5.5 C0 2 0 2 0 0 Z " fill="#D05069" transform="translate(88,195)"/>
<path d="M0 0 C0.33 0.66 0.66 1.32 1 2 C0.22265625 3.7265625 0.22265625 3.7265625 -0.9375 5.625 C-1.618125 6.73875 -2.29875 7.8525 -3 9 C-3.33 9 -3.66 9 -4 9 C-4.25 6.75 -4.25 6.75 -4 4 C-2 1.6875 -2 1.6875 0 0 Z " fill="#728A96" transform="translate(297,311)"/>
<path d="M0 0 C2.3125 0.1875 2.3125 0.1875 5 1 C6.8125 3.5625 6.8125 3.5625 8 6 C4.08597051 4.73058503 2.20927127 3.48832306 0 0 Z " fill="#812F4C" transform="translate(101,215)"/>
<path d="M0 0 C2.31 0.33 4.62 0.66 7 1 C3.5647952 3.29013653 2.014669 3.17842973 -2 3 C-1.34 2.01 -0.68 1.02 0 0 Z " fill="#879FAD" transform="translate(261,338)"/>
<path d="M0 0 C2.32947183 2.11770166 3.88750845 4.03335588 5 7 C4.67 7.99 4.34 8.98 4 10 C0 4.5 0 4.5 0 0 Z " fill="#054051" transform="translate(180,260)"/>
<path d="M0 0 C0.33 0.66 0.66 1.32 1 2 C0.01 2.495 0.01 2.495 -1 3 C-1.33 3.99 -1.66 4.98 -2 6 C-4.5625 7.1875 -4.5625 7.1875 -7 8 C-5.50902342 4.2047869 -3.24299151 2.38957269 0 0 Z " fill="#C4E0E6" transform="translate(332,249)"/>
<path d="M0 0 C2.71224618 1.61268692 5.37352812 3.24901874 8 5 C7.67 5.66 7.34 6.32 7 7 C6.01 7 5.02 7 4 7 C4 6.01 4 5.02 4 4 C3.01 4 2.02 4 1 4 C0.67 2.68 0.34 1.36 0 0 Z " fill="#074952" transform="translate(168,248)"/>
<path d="M0 0 C4.81938524 -0.23509196 8.46298506 0.54815522 13 2 C13 2.33 13 2.66 13 3 C8.07872966 3.16682272 4.49656104 3.24828052 0 1 C0 0.67 0 0.34 0 0 Z " fill="#E14E66" transform="translate(124,225)"/>
<path d="M0 0 C-2.64 1.98 -5.28 3.96 -8 6 C-8.66 5.67 -9.32 5.34 -10 5 C-9.01 4.34 -8.02 3.68 -7 3 C-6.67 2.01 -6.34 1.02 -6 0 C-3.42525708 -0.99667468 -2.51072708 -1.25536354 0 0 Z " fill="#6D283C" transform="translate(171,217)"/>
<path d="M0 0 C3.98175544 2.10148204 6.35039045 4.36905358 9 8 C6 8 6 8 3.8125 6.125 C2 4 2 4 2 2 C1.34 2 0.68 2 0 2 C0 1.34 0 0.68 0 0 Z " fill="#D84F6C" transform="translate(167,135)"/>
<path d="M0 0 C0.99 0.33 1.98 0.66 3 1 C0.82575883 3.50037734 -0.73045798 4.43628586 -4 5 C-2.25 1.125 -2.25 1.125 0 0 Z " fill="#839EA7" transform="translate(390,332)"/>
<path d="M0 0 C0.66 0.99 1.32 1.98 2 3 C1.01 4.485 1.01 4.485 0 6 C-0.66 6 -1.32 6 -2 6 C-2.33 4.35 -2.66 2.7 -3 1 C-2.01 0.67 -1.02 0.34 0 0 Z " fill="#93ADB5" transform="translate(279,329)"/>
<path d="M0 0 C0.66 0.33 1.32 0.66 2 1 C-0.75 5.875 -0.75 5.875 -3 7 C-3 5.35 -3 3.7 -3 2 C-2.01 2 -1.02 2 0 2 C0 1.34 0 0.68 0 0 Z " fill="#B14359" transform="translate(175,208)"/>
<path d="M0 0 C-2.97 1.32 -5.94 2.64 -9 4 C-9.66 3.34 -10.32 2.68 -11 2 C-4.5 -1.125 -4.5 -1.125 0 0 Z " fill="#B94861" transform="translate(125,127)"/>
</svg>
